# AST/ASF file generated using VICON BodyLanguage
# -----------------------------------------------
:version 1.10
:name VICON
:units
  mass 1.0
  length 0.45
  angle deg
:documentation
   .ast/.asf automatically generated from VICON data using
   VICON BodyBuilder and BodyLanguage model FoxedUp or BRILLIANT.MOD
:root
   order TX TY TZ RX RY RZ
   axis XYZ
   position 0 0 0  
   orientation 0 0 0 
:bonedata
  begin
     id 1 
     name lhipjoint
     direction 0.710188 -0.616876 0.339259 
     length 2.5669 
     axis 0 0 0  XYZ
  end
  begin
     id 2 
     name lfemur
     direction 0.34202 -0.939693 0  
     length 7.12796  
     axis 0 0 20  XYZ
    dof rx ry rz
    limits (-160.0 20.0)
           (-70.0 70.0)
           (-60.0 70.0)
  end
  begin
     id 3 
     name ltibia
     direction 0.34202 -0.939693 0   
     length 7.58108   
     axis 0 0 20   XYZ
    dof rx
    limits (-10.0 170.0)
  end
  begin
     id 4 
     name lfoot
     direction 0.0669471 -0.183936 0.980656   
     length 2.17365   
     axis -90 7.62852e-016 20   XYZ
    dof rx rz
    limits (-45.0 90.0)
           (-70.0 20.0)
  end
  begin
     id 5 
     name ltoes
     direction 1.53508e-011 -4.21705e-011 1   
     length 1.09427   
     axis -90 7.62852e-016 20   XYZ
    dof rx
    limits (-90.0 20.0)
  end
  begin
     id 6 
     name rhipjoint
     direction -0.700191 -0.625589 0.34405   
     length 2.53115  
     axis 0 0 0  XYZ 
  end
  begin
     id 7 
     name rfemur
     direction -0.34202 -0.939693 0   
     length 7.33006   
     axis 0 0 -20   XYZ
    dof rx ry rz
    limits (-160.0 20.0)
           (-70.0 70.0)
           (-70.0 60.0)
  end
  begin
     id 8 
     name rtibia
     direction -0.34202 -0.939693 0   
     length 7.64926   
     axis 0 0 -20   XYZ
    dof rx
    limits (-10.0 170.0)
 end
 begin
     id 9 
     name rfoot
     direction -0.0688927 -0.189281 0.979503   
     length 2.20493  
     axis -90 -7.62852e-016 -20   XYZ
    dof rx rz
    limits (-45.0 90.0)
           (-20.0 70.0)
  end
  begin
     id 10 
     name rtoes
     direction -1.53567e-011 -4.21933e-011 1   
     length 1.10919   
     axis -90 -7.62852e-016 -20   XYZ
    dof rx
    limits (-90.0 20.0)
  end
  begin
     id 11 
     name lowerback
     direction -0.0167868 0.989873 -0.140959   
     length 2.14596   
     axis 0 0 0   XYZ
    dof rx ry rz
    limits (-20.0 45.0)
           (-30.0 30.0)
           (-30.0 30.0)
  end
  begin
     id 12 
     name upperback
     direction 0.0129109 0.998033 0.0613525   
     length 2.10457   
     axis 0 0 0   XYZ
    dof rx ry rz
    limits (-20.0 45.0)
           (-30.0 30.0)
           (-30.0 30.0)
  end
  begin
     id 13 
     name thorax
     direction 0.0177047 0.991119 0.131797   
     length 2.17652   
     axis 0 0 0   XYZ
    dof rx ry rz
    limits (-20.0 45.0)
           (-30.0 30.0)
           (-30.0 30.0)
  end
  begin
     id 14 
     name lowerneck
     direction -0.0336893 0.997548 0.0613464   
     length 1.8912   
     axis 0 0 0   XYZ
    dof rx ry rz
    limits (-20.0 45.0)
           (-30.0 30.0)
           (-30.0 30.0)
  end
  begin
     id 15 
     name upperneck
     direction 0.0435909 0.997179 -0.0611028   
     length 1.8829   
     axis 0 0 0   XYZ
    dof rx ry rz
    limits (-20.0 45.0)
           (-30.0 30.0)
           (-30.0 30.0)
  end
  begin
     id 16
     name head
     direction 0.0175076 0.999444 -0.0283782  
     length 1.93197  
     axis 0 0 0   XYZ
    dof rx ry rz
    limits (-20.0 45.0)
           (-30.0 30.0)
           (-30.0 30.0)
  end
  begin
     id 17 
     name lclavicle
     direction 0.919164 0.389875 0.0559876  
     length 3.60004  
     axis 0 0 0   XYZ
    dof ry rz
    limits (-20.0 10.0)
           (0.0 20.0)
  end
  begin
     id 18 
     name lhumerus
     direction 1 -4.48958e-011 6.89191e-027   
     length 5.43301   
     axis 180 -30 -90   XYZ
    dof rx ry rz
    limits (-60.0 90.0)
           (-90.0 90.0)
           (-90.0 90.0)
  end
  begin
     id 19
     name lradius
     direction 1 -4.4897e-011 3.24727e-027   
     length 3.15936   
     axis 180 -30 -90   XYZ
    dof rx
    limits (-10.0 170.0)
  end
  begin
     id 20
     name lwrist
     direction 1 -4.4897e-011 9.00228e-027   
     length 1.57968   
     axis -6.29373e-015 90 90   XYZ
    dof ry
    limits (-180.0 0.0)
 end
  begin
     id 21 
     name lhand
     direction 1 -4.48968e-011 1.80042e-026   
     length 0.712827   
     axis -1.14882e-014 90 90   XYZ
    dof rx rz
    limits (-90.0 90.0)
           (-45.0 45.0)
  end
  begin
     id 22 
     name lfingers
     direction 1 -4.49019e-011 3.60267e-026   
     length 0.574699   
     axis -2.29769e-014 90 90   XYZ
    dof rx
    limits (0.0 90.0)
  end
  begin
     id 23
     name lthumb
     direction 0.707107 -6.3498e-011 0.707107   
     length 0.825157   
     axis -90 45 5.37419e-014   XYZ
    dof rx rz
    limits (-45.0 45.0)
           (-45.0 45.0)
  end
  begin
     id 24 
     name rclavicle
     direction -0.890334 0.455305 -0.00132111   
     length 3.51494  
     axis 0 0 0   XYZ 
    dof ry rz
    limits (-10.0 20.0)
           (-20.0 0.0)
  end
  begin
     id 25 
     name rhumerus
     direction -1 -4.48967e-011 5.07175e-028  
     length 5.34194   
     axis 180 30 90   XYZ
    dof rx ry rz
    limits (-90.0 60.0)
           (-90.0 90.0)
           (-90.0 90.0)
  end
  begin
     id 26 
     name rradius
     direction -1 -4.48955e-011 3.30467e-027   
     length 3.19351   
     axis 180 30 90   XYZ
    dof rx
    limits (-10.0 170.0)
  end
  begin
     id 27 
     name rwrist
     direction -1 -4.48968e-011 9.00208e-027   
     length 1.59676   
     axis -6.29373e-015 -90 -90   XYZ
    dof ry
    limits (-180.0 0.0)
  end
  begin
     id 28
     name rhand
     direction -1 -4.49e-011 1.80099e-026   
     length 0.743862   
     axis -1.14882e-014 -90 -90   XYZ
    dof rx rz
    limits (-90.0 90.0)
           (-45.0 45.0)
  end
  begin
     id 29
     name rfingers
     direction -1 -4.49009e-011 3.6023e-026   
     length 0.599721   
     axis -2.29769e-014 -90 -90   XYZ
    dof rx
    limits (0.0 90.0)
  end
  begin
     id 30
     name rthumb
     direction -0.707107 -6.35025e-011 0.707107   
     length 0.861083   
     axis -90 -45 -5.37419e-014   XYZ
    dof rx rz
    limits (-45.0 45.0)
           (-45.0 45.0)
  end
:hierarchy
  begin
    root lhipjoint rhipjoint lowerback
    lhipjoint lfemur
    lfemur ltibia
    ltibia lfoot
    lfoot ltoes
    rhipjoint rfemur
    rfemur rtibia
    rtibia rfoot
    rfoot rtoes
    lowerback upperback
    upperback thorax
    thorax lowerneck lclavicle rclavicle
    lowerneck upperneck
    upperneck head
    lclavicle lhumerus
    lhumerus lradius
    lradius lwrist
    lwrist lhand lthumb
    lhand lfingers
    rclavicle rhumerus
    rhumerus rradius
    rradius rwrist
    rwrist rhand rthumb
    rhand rfingers
  end

#!OML:ASF H:\Martial Arts Walks\Project 1\Capture day 1\Session 1\male.ASF
:FULLY-SPECIFIED
:DEGREES
68
root -0.00836712 13.6203 -30.3773 11.4726 -25.6684 -14.1441
lowerback 5.92679 0.641869 4.58186
upperback -2.12901 1.45775 4.89915
thorax -5.57437 0.6388 2.3882
lowerneck -5.37806 0.381118 -3.02252
upperneck 9.44596 0.329385 4.49444
head 4.06334 0.252243 2.07083
rclavicle 4.82053e-015 -6.91771e-014
rhumerus -74.6288 24.098 -96.3703
rradius 110.115
rwrist -47.9811
rhand -3.24963 -15.0922
rfingers 7.12502
rthumb 22.4744 -43.8044
lclavicle 4.82053e-015 -6.91771e-014
lhumerus 0.114376 -19.4941 71.9194
lradius 36.915
lwrist -28.3412
lhand -19.2369 26.6012
lfingers 7.12502
lthumb 7.07652 56.4629
rfemur 16.5652 -2.02477 14.1685
rtibia 29.8289
rfoot -25.4929 -33.604
rtoes -26.7545
lfemur -71.8341 35.8724 -11.3742
ltibia 82.9576
lfoot -13.7968 -4.2537
ltoes -1.69711
69
root -0.008785 13.6199 -30.3764 11.4729 -25.6535 -14.1379
lowerback 5.93954 0.659084 4.59115
upperback -2.13452 1.48268 4.89164
thorax -5.58728 0.650515 2.37243
lowerneck -5.40994 0.631903 -2.81516
upperneck 9.43523 0.659234 4.39142
head 4.04956 0.418527 2.01405
rclavicle 2.10836e-014 -3.04141e-014
rhumerus -74.632 23.994 -96.3426
rradius 110.175
rwrist -47.9564
rhand -3.23171 -15.0873
rfingers 7.12502
rthumb 22.4916 -43.7974
lclavicle 2.10836e-014 -3.04141e-014
lhumerus 0.137053 -19.5445 71.9333
lradius 36.909
lwrist -28.3452
lhand -19.2161 26.5707
lfingers 7.12502
lthumb 7.09652 56.4317
rfemur 16.6063 -2.02294 14.1716
rtibia 29.7674
rfoot -25.4716 -33.6011
rtoes -26.7635
lfemur -71.8401 35.8615 -11.3792
ltibia 82.9638
lfoot -13.8124 -4.26876
ltoes -1.69029
70
root -0.00919122 13.6193 -30.374 11.4765 -25.6644 -14.1376
lowerback 5.93716 0.681629 4.60748
upperback -2.13378 1.51355 4.88314
thorax -5.58478 0.665086 2.35107
lowerneck -5.45978 0.870029 -2.60271
upperneck 9.45195 0.972651 4.27009
head 4.05112 0.576217 1.95026
rclavicle -3.08675e-014 -7.60351e-014
rhumerus -74.6258 23.8994 -96.3179
rradius 110.227
rwrist -47.9309
rhand -3.20688 -15.0767
rfingers 7.12502
rthumb 22.5154 -43.784
lclavicle -3.08675e-014 -7.60351e-014
lhumerus 0.157117 -19.5869 71.9431
lradius 36.9056
lwrist -28.3445
lhand -19.1993 26.5553
lfingers 7.12502
lthumb 7.1128 56.4157
rfemur 16.6491 -1.99939 14.1686
rtibia 29.6981
rfoot -25.4517 -33.5884
rtoes -26.7801
lfemur -71.8359 35.8742 -11.3773
ltibia 82.9784
lfoot -13.8387 -4.27798
ltoes -1.67274
71
root -0.00954721 13.6187 -30.3699 11.4802 -25.7075 -14.1414
lowerback 5.91896 0.713597 4.63108
upperback -2.125 1.55554 4.87142
thorax -5.56451 0.685094 2.32112
lowerneck -5.51728 1.09255 -2.3939
upperneck 9.48858 1.26551 4.14053
head 4.06349 0.723286 1.88412
rclavicle 3.38617e-014 8.34896e-015
rhumerus -74.611 23.8081 -96.2934
rradius 110.272
rwrist -47.9077
rhand -3.18139 -15.059
rfingers 7.12502
rthumb 22.5399 -43.7633
lclavicle 3.38617e-014 8.34896e-015
lhumerus 0.176544 -19.6242 71.9516
lradius 36.9048
lwrist -28.3416
lhand -19.1872 26.5557
lfingers 7.12502
lthumb 7.12446 56.4158
rfemur 16.6926 -1.95106 14.1551
rtibia 29.6247
rfoot -25.4289 -33.5678
rtoes -26.8095
lfemur -71.8146 35.9167 -11.3685
ltibia 83.0008
lfoot -13.8776 -4.28239
ltoes -1.64254
72
root -0.00984458 13.6182 -30.3649 11.4849 -25.769 -14.1479
lowerback 5.89114 0.749865 4.65893
upperback -2.11207 1.60242 4.85783
thorax -5.53418 0.707482 2.28639
lowerneck -5.56879 1.3002 -2.19646
upperneck 9.53627 1.53874 4.01133
head 4.08065 0.860152 1.81964
rclavicle -2.76435e-014 -3.20043e-014
rhumerus -74.5928 23.7245 -96.272
rradius 110.31
rwrist -47.8871
rhand -3.16436 -15.0335
rfingers 7.12502
rthumb 22.5562 -43.7358
lclavicle -2.76435e-014 -3.20043e-014
lhumerus 0.193259 -19.6563 71.9579
lradius 36.9053
lwrist -28.3331
lhand -19.1844 26.5669
lfingers 7.12502
lthumb 7.12718 56.4269
rfemur 16.7322 -1.89237 14.1346
rtibia 29.5519
rfoot -25.394 -33.5466
rtoes -26.8563
lfemur -71.7834 35.9761 -11.356
ltibia 83.0269
lfoot -13.9237 -4.2845
ltoes -1.59164
73
root -0.0100778 13.6179 -30.3602 11.4828 -25.8289 -14.1523
lowerback 5.87339 0.783921 4.68289
upperback -2.09945 1.64692 4.84528
thorax -5.50999 0.72879 2.25516
lowerneck -5.6089 1.49397 -2.01768
upperneck 9.59205 1.79405 3.88706
head 4.10016 0.98756 1.75958
rclavicle 4.12665e-014 -1.49089e-015
rhumerus -74.5731 23.6507 -96.2524
rradius 110.342
rwrist -47.8693
rhand -3.15888 -15.0083
rfingers 7.12502
rthumb 22.5615 -43.71
lclavicle 4.12665e-014 -1.49089e-015
lhumerus 0.204138 -19.6787 71.9676
lradius 36.9047
lwrist -28.3264
lhand -19.1894 26.5808
lfingers 7.12502
lthumb 7.12231 56.4409
rfemur 16.7708 -1.83714 14.113
rtibia 29.4895
rfoot -25.3552 -33.5313
rtoes -26.9146
lfemur -71.7428 36.0313 -11.3409
ltibia 83.0509
lfoot -13.97 -4.28386
ltoes -1.54606
74
root -0.0102527 13.6179 -30.3569 11.4773 -25.8687 -14.1505
lowerback 5.87277 0.810653 4.69729
upperback -2.09093 1.68267 4.83425
thorax -5.50012 0.745952 2.23172
lowerneck -5.63869 1.67572 -1.85826
upperneck 9.64649 2.03418 3.76971
head 4.11853 1.10694 1.70463
rclavicle -1.92324e-014 3.20043e-014
rhumerus -74.5532 23.5853 -96.2351
rradius 110.371
rwrist -47.8549
rhand -3.17553 -14.9794
rfingers 7.12502
rthumb 22.5455 -43.6831
lclavicle -1.92324e-014 3.20043e-014
lhumerus 0.213408 -19.6924 71.9795
lradius 36.9025
lwrist -28.3236
lhand -19.1972 26.5927
lfingers 7.12502
lthumb 7.11478 56.4531
rfemur 16.801 -1.80005 14.0954
rtibia 29.4437
rfoot -25.3146 -33.5282
rtoes -26.9734
lfemur -71.7094 36.0662 -11.3331
ltibia 83.0679
lfoot -14.0071 -4.28348
ltoes -1.51568
75
root -0.0103668 13.618 -30.3554 11.4739 -25.878 -14.1428
lowerback 5.8893 0.827721 4.70227
upperback -2.09195 1.70702 4.82615
thorax -5.51038 0.757557 2.2177
lowerneck -5.65424 1.84619 -1.71765
upperneck 9.69576 2.25984 3.66287
head 4.13336 1.21882 1.65571
rclavicle 5.00627e-014 1.20265e-014
rhumerus -74.5371 23.527 -96.2199
rradius 110.397
rwrist -47.8448
rhand -3.21089 -14.9495
rfingers 7.12502
rthumb 22.5116 -43.6572
lclavicle 5.00627e-014 1.20265e-014
lhumerus 0.218608 -19.7014 71.9961
lradius 36.8983
lwrist -28.3254
lhand -19.2069 26.6027
lfingers 7.12502
lthumb 7.10545 56.4635
rfemur 16.8162 -1.78918 14.0868
rtibia 29.4191
rfoot -25.2842 -33.5331
rtoes -27.0151
lfemur -71.6962 36.0709 -11.3369
ltibia 83.0764
lfoot -14.0283 -4.28376
ltoes -1.51093
76
root -0.0103954 13.6183 -30.3539 11.4746 -25.8886 -14.1343
lowerback 5.90239 0.843873 4.70627
upperback -2.0966 1.73009 4.81933
thorax -5.52255 0.768534 2.20577
lowerneck -5.65457 2.00614 -1.59048
upperneck 9.73642 2.47216 3.5615
head 4.14304 1.32371 1.61004
rclavicle 9.80878e-015 3.76697e-014
rhumerus -74.5244 23.4809 -96.209
rradius 110.417
rwrist -47.8403
rhand -3.2607 -14.9203
rfingers 7.12502
rthumb 22.4637 -43.6339
lclavicle 9.80878e-015 3.76697e-014
lhumerus 0.215213 -19.702 72.0182
lradius 36.8917
lwrist -28.3343
lhand -19.2119 26.6096
lfingers 7.12502
lthumb 7.10061 56.4705
rfemur 16.8145 -1.7816 14.0756
rtibia 29.4146
rfoot -25.2672 -33.5338
rtoes -27.0372
lfemur -71.688 36.0767 -11.3453
ltibia 83.0815
lfoot -14.0447 -4.28128
ltoes -1.53165
77
root -0.0104213 13.6187 -30.3526 11.4838 -25.893 -14.1198
lowerback 5.90794 0.860149 4.70642
upperback -2.10412 1.7525 4.81024
thorax -5.53344 0.779299 2.19377
lowerneck -5.65969 2.15389 -1.47136
upperneck 9.77009 2.66794 3.47138
head 4.15213 1.42068 1.56887
rclavicle -3.23708e-014 -1.31198e-014
rhumerus -74.5066 23.4365 -96.1964
rradius 110.431
rwrist -47.8407
rhand -3.31219 -14.8906
rfingers 7.12502
rthumb 22.4143 -43.6101
lclavicle -3.23708e-014 -1.31198e-014
lhumerus 0.21968 -19.7063 72.0399
lradius 36.8814
lwrist -28.3448
lhand -19.2134 26.6112
lfingers 7.12502
lthumb 7.09913 56.4721
rfemur 16.7933 -1.78272 14.0607
rtibia 29.4262
rfoot -25.2648 -33.5329
rtoes -27.039
lfemur -71.6977 36.0753 -11.3694
ltibia 83.0833
lfoot -14.0528 -4.27445
ltoes -1.57168
